<svg id="Layer_1" data-name="Layer 1" xmlns="http://www.w3.org/2000/svg" xmlns:xlink="http://www.w3.org/1999/xlink" viewBox="0 0 872.81 272.42"><defs><style>.cls-1{fill:#f48696;}.cls-2,.cls-3{fill:none;}.cls-2{stroke:#ffdb78;stroke-width:12px;}.cls-3{stroke:#86328c;stroke-width:8px;}.cls-4{fill:#e81a4b;}.cls-5{fill:#a00041;}.cls-6{fill:#f37d89;}.cls-7,.cls-9{fill:#fff;}.cls-8,.cls-9{opacity:0.48;}.cls-10{font-size:212px;fill:#f40091;stroke:#f90030;font-family:AdobeArabic-Regular, Adobe Arabic;}.cls-11{letter-spacing:-0.02em;}.cls-12{letter-spacing:-0.01em;}.cls-13{letter-spacing:0em;}.cls-14{letter-spacing:-0.01em;}.cls-15{letter-spacing:0em;}.cls-16{letter-spacing:-0.01em;}</style><symbol id="Lips" data-name="Lips" viewBox="0 0 174.07 112.8"><path class="cls-1" d="M24,23.31s22.37-3,29.33-10,12.55,5.89,14.59,13.06-4.86-1.28-11.27-2.82S28.87,28.18,24,23.31Z"/><path class="cls-2" d="M113.46,25c-20.37,2.68-31,26.27-40.21.81S56.77,4.11,45.58,11.51C33.9,19.23,7,22.93,7,22.93c0,.29.1.57.15.85C30,154.67,133.55,95.16,156.46,81.1c2-1.25,3.39-2.14,3.94-2.5l.28-.19C131.44,68.71,133.82,22.3,113.46,25Z"/><path class="cls-3" d="M113.46,25c-20.37,2.68-31,26.27-40.21.81S56.77,4.11,45.58,11.51C33.9,19.23,7,22.93,7,22.93c0,.29.1.57.15.85C30,154.67,133.55,95.16,156.46,81.1c2-1.25,3.39-2.14,3.94-2.5l.28-.19C131.44,68.71,133.82,22.3,113.46,25Z"/><path class="cls-4" d="M49.35,46.12c6,10.7,18.57,31.18,47.07,15.19,20.72-11.62,48.16,17.48,54.86,17.56,4.11.05,7.28-.13,9.12-.27l.28-.19C131.44,68.71,133.82,22.3,113.46,25s-31,26.27-40.21.81S56.77,4.11,45.58,11.51C33.9,19.23,7,22.93,7,22.93S43.1,35.06,49.35,46.12Z"/><path class="cls-4" d="M113,63.51c-9.22-2.56-31.24,7.17-43,9.73s-24.21-24.58-30.61-31C34,36.91,13.68,26.93,7.12,23.78,30,154.67,133.55,95.16,156.46,81.1,133.51,82.41,121.5,65.87,113,63.51Z"/><path class="cls-5" d="M70,73.24c11.78-2.56,33.8-12.29,43-9.73,8.51,2.36,20.52,18.9,43.48,17.6,2-1.25,3.39-2.14,3.94-2.5-1.84.15-5,.33-9.12.27-6.7-.08-34.14-29.19-54.86-17.56-28.5,16-41-4.49-47.07-15.19C43.1,35.06,7,22.93,7,22.93c0,.29,2.65,1.77,2.7,2.06C16.22,28.13,34,36.91,39.36,42.26,45.76,48.66,58.19,75.8,70,73.24Z"/><path class="cls-6" d="M71.58,102.76c7.42,2.32,29.92,1.62,40.36-5.8s-7.19-3.25-11.6-.46S64.16,100.44,71.58,102.76Z"/><path class="cls-6" d="M14.49,34.81s-4.17-3-2.78,2.32,13,41.29,21.34,44.07,2.09-3.71-1.86-7.42S20.29,58.93,20.53,55.45s1.16-5.57-1.62-8.12S14,41.07,14.73,39,16.35,36,14.49,34.81Z"/><path class="cls-6" d="M40.27,91.4s8.35,7.42,12.06,7.19S53,97,50,95.34,38.64,87.46,40.27,91.4Z"/><path class="cls-6" d="M89.9,39.54s15.85-8,24.65-10.56,16.86,16.1,14.59,16.35c0,0-3.27,1-8.3-6.54-1.68-2.52-3.52-7.8-6-5.79S88.14,44.57,89.9,39.54Z"/><path class="cls-6" d="M70,30.73s-7.8-20.63-11.57-20.63-9.81,4.53-13.33,5c0,0,4.28.75,7.3-.76S66.25,35.51,69.52,31.24"/><ellipse class="cls-7" cx="124.1" cy="42.94" rx="3.05" ry="1.63"/><g class="cls-8"><path class="cls-7" d="M142.39,48.1c-17-4.19-17.65-4.07-20.5,3.78,1.45-8.22,1-8.64-15.88-13.49,17,4.19,17.65,4.07,20.5-3.78C125.06,42.83,125.56,43.25,142.39,48.1Z"/></g><g class="cls-8"><path class="cls-7" d="M133.63,59.54c-9.07-15-9.6-15.36-17.17-11.82,6.84-4.79,6.79-5.44-1.69-20.77,9.07,15,9.6,15.36,17.17,11.82C125.1,43.56,125.15,44.21,133.63,59.54Z"/></g><ellipse class="cls-9" cx="102.01" cy="98.41" rx="6.97" ry="2.27" transform="translate(-22.45 30.59) rotate(-15.39)"/><path class="cls-6" d="M67.71,98.55S83,98.12,91.9,95.31s20.72-8.63,23.53-6,14.25,0,18.35-2.16c0,0-7.77,1.94-9.71,1.29s-.43-9.5-.43-9.5-.86,6.48-3,7.34-3.24-6.64-3.24-6.64-2.15,8.15-4.75,7.29-.43-8.64-.43-8.64-2.81,11.44-6,9.93-3.45-8.85-3.45-8.85-1.32,13.25-3.45,10.15c-1.92-2.79-1.94-8.64-1.94-8.64s.21,11.44-2.59,10.58-6.69-5-6.69-5,4.75,6.69,1.29,6.91-7.55-4.32-7.55-4.32,5.4,6.26,2.16,5.83a22.21,22.21,0,0,1-6.69-2.37s3.89,3.45.87,3.67S67.71,98.55,67.71,98.55Z"/></symbol></defs><title>logo</title><text class="cls-10" transform="translate(0.5 155.77)"><tspan class="cls-11">N</tspan><tspan class="cls-12" x="113.45" y="0">o</tspan><tspan class="cls-13" x="191.61" y="0">n</tspan><tspan x="276.49" y="0" xml:space="preserve">a     </tspan><tspan class="cls-14" x="551.95" y="0">S</tspan><tspan class="cls-15" x="624.2" y="0">t</tspan><tspan class="cls-12" x="671.09" y="0">o</tspan><tspan class="cls-16" x="749.25" y="0">r</tspan><tspan x="805.77" y="0">e</tspan></text><use width="174.07" height="112.8" transform="translate(361.77 59.73)" xlink:href="#Lips"/></svg>